<svg xmlns="http://www.w3.org/2000/svg" viewBox="0 0 1200 800">
  <defs>
    <!-- 渐变定义 -->
    <linearGradient id="skyGradient" x1="0%" y1="0%" x2="0%" y2="100%">
      <stop offset="0%" style="stop-color:#E8DCC6;stop-opacity:1" />
      <stop offset="50%" style="stop-color:#D4C4A8;stop-opacity:1" />
      <stop offset="100%" style="stop-color:#C8B99C;stop-opacity:1" />
    </linearGradient>
    
    <linearGradient id="buildingGradient" x1="0%" y1="0%" x2="0%" y2="100%">
      <stop offset="0%" style="stop-color:#8B4513;stop-opacity:0.8" />
      <stop offset="100%" style="stop-color:#654321;stop-opacity:0.9" />
    </linearGradient>
    
    <!-- 纹理图案 -->
    <pattern id="woodTexture" patternUnits="userSpaceOnUse" width="20" height="20">
      <rect width="20" height="20" fill="#8B4513" opacity="0.3"/>
      <path d="M0,10 Q10,5 20,10 Q10,15 0,10" fill="#654321" opacity="0.2"/>
    </pattern>
  </defs>
  
  <!-- 背景 -->
  <rect width="1200" height="800" fill="url(#skyGradient)"/>
  
  <!-- 远山背景 -->
  <path d="M0,400 Q200,350 400,400 Q600,350 800,400 Q1000,350 1200,400 L1200,800 L0,800 Z" 
        fill="#A0956B" opacity="0.3"/>
  
  <!-- 建筑结构 - 传统中式建筑 -->
  <g opacity="0.6">
    <!-- 主殿 -->
    <rect x="400" y="200" width="400" height="300" fill="url(#buildingGradient)"/>
    <polygon points="380,200 420,150 780,150 820,200" fill="#CD853F" opacity="0.8"/>
    
    <!-- 侧殿 -->
    <rect x="200" y="250" width="180" height="250" fill="url(#buildingGradient)"/>
    <polygon points="190,250 210,220 370,220 390,250" fill="#CD853F" opacity="0.8"/>
    
    <rect x="820" y="250" width="180" height="250" fill="url(#buildingGradient)"/>
    <polygon points="810,250 830,220 990,220 1010,250" fill="#CD853F" opacity="0.8"/>
    
    <!-- 柱子 -->
    <rect x="450" y="300" width="15" height="200" fill="#8B4513" opacity="0.9"/>
    <rect x="500" y="300" width="15" height="200" fill="#8B4513" opacity="0.9"/>
    <rect x="550" y="300" width="15" height="200" fill="#8B4513" opacity="0.9"/>
    <rect x="600" y="300" width="15" height="200" fill="#8B4513" opacity="0.9"/>
    <rect x="650" y="300" width="15" height="200" fill="#8B4513" opacity="0.9"/>
    <rect x="700" y="300" width="15" height="200" fill="#8B4513" opacity="0.9"/>
    <rect x="750" y="300" width="15" height="200" fill="#8B4513" opacity="0.9"/>
  </g>
  
  <!-- 人物群像 -->
  <g opacity="0.4">
    <!-- 中央主要人物 - 穿金色服装的重要人物 -->
    <ellipse cx="600" cy="450" rx="25" ry="40" fill="#DAA520"/>
    <circle cx="600" cy="420" r="12" fill="#F4A460"/>
    <rect x="590" y="430" width="20" height="8" fill="#FF6347" opacity="0.8"/>
    
    <!-- 左侧人物群 -->
    <ellipse cx="300" cy="460" rx="18" ry="35" fill="#8B4513"/>
    <circle cx="300" cy="435" r="10" fill="#F4A460"/>
    
    <ellipse cx="350" cy="470" rx="16" ry="32" fill="#4682B4"/>
    <circle cx="350" cy="448" r="9" fill="#F4A460"/>
    
    <ellipse cx="400" cy="465" rx="17" ry="33" fill="#228B22"/>
    <circle cx="400" cy="442" r="9" fill="#F4A460"/>
    
    <ellipse cx="450" cy="475" rx="15" ry="30" fill="#DC143C"/>
    <circle cx="450" cy="455" r="8" fill="#F4A460"/>
    
    <!-- 右侧人物群 -->
    <ellipse cx="750" cy="460" rx="18" ry="35" fill="#4169E1"/>
    <circle cx="750" cy="435" r="10" fill="#F4A460"/>
    
    <ellipse cx="800" cy="470" rx="16" ry="32" fill="#FF8C00"/>
    <circle cx="800" cy="448" r="9" fill="#F4A460"/>
    
    <ellipse cx="850" cy="465" rx="17" ry="33" fill="#9932CC"/>
    <circle cx="850" cy="442" r="9" fill="#F4A460"/>
    
    <ellipse cx="900" cy="475" rx="15" ry="30" fill="#B22222"/>
    <circle cx="900" cy="455" r="8" fill="#F4A460"/>
    
    <!-- 后排人物 -->
    <ellipse cx="500" cy="380" rx="12" ry="25" fill="#2F4F4F"/>
    <circle cx="500" cy="365" r="7" fill="#F4A460"/>
    
    <ellipse cx="550" cy="385" rx="11" ry="23" fill="#8B008B"/>
    <circle cx="550" cy="372" r="6" fill="#F4A460"/>
    
    <ellipse cx="650" cy="385" rx="11" ry="23" fill="#006400"/>
    <circle cx="650" cy="372" r="6" fill="#F4A460"/>
    
    <ellipse cx="700" cy="380" rx="12" ry="25" fill="#8B0000"/>
    <circle cx="700" cy="365" r="7" fill="#F4A460"/>
  </g>
  
  <!-- 装饰元素 -->
  <g opacity="0.3">
    <!-- 树木 -->
    <circle cx="100" cy="450" r="25" fill="#228B22"/>
    <rect x="95" y="450" width="10" height="50" fill="#8B4513"/>
    
    <circle cx="1100" cy="460" r="30" fill="#32CD32"/>
    <rect x="1095" y="460" width="10" height="40" fill="#8B4513"/>
    
    <!-- 装饰性植物 -->
    <path d="M50,500 Q75,480 100,500 Q75,520 50,500" fill="#228B22" opacity="0.6"/>
    <path d="M1150,510 Q1175,490 1200,510 Q1175,530 1150,510" fill="#228B22" opacity="0.6"/>
    
    <!-- 云朵 -->
    <ellipse cx="200" cy="150" rx="40" ry="20" fill="#FFFFFF" opacity="0.7"/>
    <ellipse cx="800" cy="120" rx="35" ry="18" fill="#FFFFFF" opacity="0.7"/>
    <ellipse cx="1000" cy="140" rx="45" ry="22" fill="#FFFFFF" opacity="0.7"/>
  </g>
  
  <!-- 前景装饰 -->
  <g opacity="0.2">
    <!-- 地面纹理 -->
    <rect x="0" y="500" width="1200" height="300" fill="url(#woodTexture)"/>
    
    <!-- 装饰性图案 -->
    <circle cx="600" cy="600" r="50" fill="none" stroke="#DAA520" stroke-width="2" opacity="0.3"/>
    <circle cx="600" cy="600" r="30" fill="none" stroke="#DAA520" stroke-width="1" opacity="0.3"/>
  </g>
  
  <!-- 整体古典滤镜效果 -->
  <rect width="1200" height="800" fill="#D2B48C" opacity="0.1"/>
</svg>